<?xml version="1.0" encoding="iso-8859-1"?>
<!-- Generator: Adobe Illustrator 19.0.0, SVG Export Plug-In . SVG Version: 6.00 Build 0)  -->
<svg version="1.1" id="Capa_1" xmlns="http://www.w3.org/2000/svg" xmlns:xlink="http://www.w3.org/1999/xlink" x="0px" y="0px"
	 viewBox="0 0 511.996 511.996" style="enable-background:new 0 0 511.996 511.996;" xml:space="preserve">
<circle style="fill:#1081E0;" cx="256" cy="264.58" r="187.73"/>
<path style="fill:#61B872;" d="M334.771,94.18l-1.971-0.265c0,0,19.908,47.642,0,59.733l-20.574,8.226
	c-12.143,4.855-20.54,16-22.076,28.979c-0.051,0.401-0.094,0.794-0.154,1.195c-1.835,13.321-19.823,16.521-26.743,4.992
	l-8.474-14.123c-3.2-5.333-11.051-4.983-13.687,0.657c-6.682,14.268-16.521,37.76-18.765,56.602
	c-0.529,4.403,0.282,8.841,2.261,12.809l9.839,19.678c2.807,5.615,7.091,10.308,12.407,13.662
	c7.603,4.796,19.038,12.868,26.743,22.178c8.03,9.694,19.567,15.812,32.154,15.812l0,0c0.785,0,1.417,0.623,1.365,1.408
	c-0.58,9.02-2.859,58.325,17.169,58.325c0,0,42.667,8.175,42.667-59.733l14.199-63.906c1.033-4.651,7.211-5.649,9.66-1.57
	l8.849,14.754c5.325,8.875,17.152,11.187,25.438,4.983l18.654-13.995C443.733,189.045,399.095,123.961,334.771,94.18z"/>
<path style="fill:#3D6F44;" d="M136.533,325.288v-12.834c0-10.778-10.761-18.236-20.847-14.447l-40.977,15.369
	c18.372,68.42,74.402,121.404,144.538,135.33l3.123-10.94c4.958-17.348,0.119-36.019-12.638-48.777l-5.171-5.171
	c-5.478-5.478-11.955-9.865-19.081-12.919l-26.317-11.281C145.434,353.73,136.533,340.23,136.533,325.288z"/>
<path style="fill:#61B872;" d="M68.54,254.513l26.112-10.163l26.752-10.701c8.499-3.396,12.877-12.834,9.975-21.521
	c-2.074-6.212-0.452-13.065,4.173-17.69l18.048-18.039l6.545-6.545c6.741-6.741,10.522-15.872,10.522-25.404v-11.102
	c0-11.102-3.925-21.649-10.752-30.054C107.742,134.449,71.945,190.18,68.54,254.513z"/>
<g>
	<path style="fill:#7383BF;" d="M230.409,18.421c-4.318,0-8.03-3.268-8.482-7.663c-0.478-4.685,2.935-8.883,7.62-9.361
		c8.73-0.896,17.63-1.348,26.453-1.348c4.71,0,8.533,3.823,8.533,8.533s-3.823,8.533-8.533,8.533
		c-8.252,0-16.563,0.427-24.713,1.254C230.997,18.404,230.699,18.421,230.409,18.421z"/>
	<path style="fill:#7383BF;" d="M263.27,511.947c-4.599,0-8.388-3.661-8.525-8.286c-0.137-4.71,3.575-8.644,8.286-8.772
		c16.333-0.469,32.606-2.611,48.375-6.357c4.565-1.075,9.182,1.741,10.274,6.332c1.084,4.582-1.749,9.182-6.332,10.274
		c-16.896,4.011-34.33,6.298-51.823,6.801C263.433,511.947,263.347,511.947,263.27,511.947z M212.89,508.311
		c-0.495,0-0.99-0.043-1.485-0.128c-17.186-3.021-34.108-7.825-50.278-14.285c-4.378-1.749-6.511-6.716-4.762-11.085
		c1.749-4.386,6.707-6.511,11.093-4.762c15.087,6.025,30.874,10.505,46.908,13.329c4.642,0.819,7.74,5.239,6.929,9.882
		C220.561,505.393,216.96,508.311,212.89,508.311z M119.526,471.055c-1.613,0-3.251-0.461-4.702-1.417
		c-14.507-9.609-28.1-20.762-40.405-33.135c-3.319-3.345-3.302-8.747,0.034-12.075c3.337-3.328,8.747-3.302,12.066,0.034
		c11.486,11.554,24.175,21.965,37.726,30.933c3.925,2.603,5.001,7.902,2.398,11.827
		C125.005,469.715,122.291,471.055,119.526,471.055z M48.683,399.75c-2.782,0-5.513-1.357-7.151-3.866
		c-9.54-14.609-17.604-30.234-23.962-46.447c-1.724-4.395,0.444-9.344,4.83-11.059c4.386-1.724,9.335,0.444,11.059,4.83
		c5.931,15.13,13.457,29.713,22.366,43.349c2.577,3.942,1.468,9.233-2.475,11.81C51.908,399.298,50.287,399.75,48.683,399.75z
		 M11.998,306.165c-4.087,0-7.697-2.944-8.405-7.108C1.212,284.943,0,270.47,0,256.049c0-3.055,0.051-6.093,0.162-9.122
		c0.171-4.71,4.156-8.482,8.823-8.235c4.71,0.171,8.397,4.113,8.235,8.823c-0.102,2.842-0.154,5.683-0.154,8.533
		c0,13.474,1.135,26.982,3.362,40.158c0.785,4.651-2.347,9.054-6.989,9.839C12.954,306.131,12.476,306.165,11.998,306.165z
		 M15.582,205.719c-0.666,0-1.348-0.077-2.031-0.239c-4.582-1.118-7.381-5.734-6.263-10.317c4.13-16.93,10.035-33.502,17.553-49.246
		c2.031-4.25,7.125-6.05,11.375-4.028c4.258,2.031,6.059,7.117,4.028,11.375c-7.014,14.686-12.518,30.148-16.375,45.943
		C22.912,203.1,19.422,205.719,15.582,205.719z M58.837,115.001c-1.801,0-3.61-0.563-5.154-1.741
		c-3.755-2.85-4.48-8.209-1.63-11.955c10.539-13.867,22.545-26.718,35.678-38.187c3.558-3.106,8.943-2.731,12.041,0.819
		c3.098,3.55,2.731,8.943-0.819,12.041C86.69,86.679,75.477,98.677,65.638,111.631C63.957,113.832,61.414,115.001,58.837,115.001z
		 M134.596,48.902c-2.978,0-5.871-1.562-7.441-4.335c-2.313-4.105-0.87-9.31,3.234-11.631c15.198-8.576,31.326-15.607,47.932-20.89
		c4.489-1.417,9.293,1.058,10.718,5.547s-1.058,9.293-5.547,10.718c-15.488,4.924-30.541,11.486-44.715,19.49
		C137.455,48.544,136.013,48.902,134.596,48.902z"/>
	<path style="fill:#7383BF;" d="M361.464,488.514c-3.2,0-6.263-1.809-7.723-4.898c-2.014-4.267-0.179-9.344,4.079-11.358
		c7.424-3.507,14.746-7.433,21.76-11.682c4.028-2.449,9.276-1.152,11.725,2.876c2.441,4.028,1.152,9.276-2.876,11.725
		c-7.518,4.557-15.36,8.764-23.322,12.518C363.921,488.249,362.684,488.514,361.464,488.514z"/>
</g>
<g>
	<path style="fill:#AFB6BB;" d="M426.667,477.916c-4.71,0-8.533-3.823-8.533-8.533v-25.6c0-2.637,1.22-5.12,3.294-6.741l76.8-59.733
		c3.703-2.893,9.071-2.227,11.972,1.502c2.893,3.721,2.219,9.079-1.502,11.972L435.2,447.955v21.427
		C435.2,474.093,431.377,477.916,426.667,477.916z"/>
	<path style="fill:#AFB6BB;" d="M426.667,452.316c-0.887,0-1.801-0.145-2.697-0.444l-25.6-8.533
		c-4.471-1.493-6.886-6.323-5.393-10.795c1.485-4.463,6.306-6.904,10.795-5.393l25.6,8.533c4.471,1.493,6.886,6.323,5.393,10.795
		C433.57,450.054,430.242,452.316,426.667,452.316z"/>
	<path style="fill:#AFB6BB;" d="M486.4,460.849c-3.388,0-6.588-2.031-7.927-5.367l-16-40.004l-40.201-24.124
		c-4.045-2.423-5.35-7.663-2.927-11.708s7.663-5.35,11.708-2.927l42.667,25.6c1.596,0.956,2.842,2.415,3.533,4.147l17.067,42.667
		c1.749,4.378-0.375,9.344-4.753,11.093C488.533,460.653,487.458,460.849,486.4,460.849z"/>
</g>
<g>
</g>
<g>
</g>
<g>
</g>
<g>
</g>
<g>
</g>
<g>
</g>
<g>
</g>
<g>
</g>
<g>
</g>
<g>
</g>
<g>
</g>
<g>
</g>
<g>
</g>
<g>
</g>
<g>
</g>
</svg>
